# xmcd CD database file
#
# Track frame offsets:
#	150
#	15987
#	35192
#	59106
#	74049
#	89687
#	110090
#	125920
#	141078
#	160594
#	182981
#
# Disc length: 2627 seconds
#
# Revision: 0
# Processed by: cddbd v1.5.2PL0 Copyright (c) Steve Scherf et al.
# Submitted via: CDex 1.51
#
DISCID=ae0a410b
DTITLE=Hank Ray - Barbeque Of Souls
DYEAR=2008
DGENRE=Country
TTITLE0=Endless Plains Of Delirious Lands
TTITLE1=Damn River Risin'
TTITLE2=The Sounds Of Ghosts A-Crying
TTITLE3=Bar-B-Q Of Souls
TTITLE4=Moonlight Mile
TTITLE5=Broken Angel
TTITLE6=Saturday Satan
TTITLE7=Trail Of Dark Desires
TTITLE8=Bleeding (All Over You)
TTITLE9=Blue Highway
TTITLE10=Cold Death Angel's Embrace
EXTD=YEAR: 2008
EXTT0=
EXTT1=
EXTT2=
EXTT3=
EXTT4=
EXTT5=
EXTT6=
EXTT7=
EXTT8=
EXTT9=
EXTT10=
PLAYORDER=
